<svg width="1926" height="1307" viewBox="0 0 1926 1307" fill="none" xmlns="http://www.w3.org/2000/svg">
<g style="mix-blend-mode:multiply">
<g style="mix-blend-mode:multiply">
<path d="M1.80419 1231.83C-7.02875 1160.5 63.404 1100.2 134.424 1089.16C205.444 1078.13 276.695 1100.95 347.065 1115.6C417.435 1130.24 496.617 1135.11 555.405 1093.74C630.558 1040.85 647.951 929.588 725.35 879.907C785.607 841.178 864.054 852.759 925.801 881.565C960.713 897.866 990.401 925.266 1023.76 944.337C1175.07 1030.9 1185.31 1207.79 1313.84 1234.16C1453.05 1262.71 1528.58 1194.84 1554.85 1147.78C1588.42 1087.48 1644.6 931.057 1507.12 822.338C1451.27 778.174 1396.13 731.095 1355.03 672.938C1293.51 585.87 1293.93 452.772 1372.61 380.811C1426.51 331.507 1509.32 313.485 1545.95 250.272C1570.58 207.766 1567.21 152.987 1545.95 108.677C1524.7 64.367 1487.94 29.3721 1447.89 0.860107" stroke="#DD4D44" stroke-miterlimit="10"/>
</g>
<g style="mix-blend-mode:multiply">
<path d="M4.99302 1235.37C-1.1124 1161.94 68.9427 1098.58 142.082 1085.97C213.417 1073.66 285.906 1096.46 356.275 1112.54C425.827 1128.52 503.141 1135.78 561.657 1098.16C636.496 1050.06 657.56 944.442 734.77 895.412C796.286 856.556 873.495 863.794 936.711 888.971C973.008 903.426 1005.19 929.252 1040.15 948.617C1188.29 1030.69 1200.46 1201.83 1326.24 1227.84C1461.5 1255.77 1536.62 1191.53 1563.91 1145.22C1598.51 1086.48 1652.03 935.798 1522.14 828.422C1468.58 784.112 1415.45 736.109 1375.02 678.351C1315.33 593.339 1314.79 464.962 1389.04 393.65C1440.4 344.305 1520.23 324.206 1556.72 261.79C1581.75 219.138 1580.19 165.135 1561.71 120.489C1543.06 75.4445 1509.01 38.3936 1470.53 7.88843" stroke="#DD4D44" stroke-miterlimit="10"/>
</g>
<g style="mix-blend-mode:multiply">
<path d="M8.18205 1238.94C4.82512 1163.52 74.4606 1096.99 149.74 1082.83C221.494 1069.32 295.095 1091.79 365.486 1109.51C434.219 1126.82 509.477 1136.49 567.888 1102.65C642.433 1059.31 667.044 959.149 744.274 910.958C806.965 871.851 883.083 874.788 947.683 896.398C985.449 908.986 1020.07 933.302 1056.6 952.939C1201.36 1030.71 1215.73 1195.91 1338.7 1221.49C1470.04 1248.76 1544.74 1188.19 1573.08 1142.64C1608.58 1085.53 1659.58 940.414 1537.22 834.234C1485.95 789.756 1434.88 740.914 1395.1 683.47C1337.21 600.536 1335.7 476.858 1405.59 406.197C1454.41 356.809 1531.27 334.654 1567.58 273.057C1593.03 230.236 1593.33 176.967 1577.51 132.049C1561.35 86.1864 1530.13 47.2053 1493.21 14.5602" stroke="#DD4D44" stroke-opacity="0.95" stroke-miterlimit="10"/>
</g>
<g style="mix-blend-mode:multiply">
<path d="M11.3714 1242.51C10.742 1165.03 79.9998 1095.44 157.398 1079.68C229.53 1064.99 304.264 1087.19 374.697 1106.47C442.612 1125.08 515.898 1137.21 574.141 1107.12C648.371 1068.54 676.59 973.982 753.779 926.504C817.665 887.208 892.735 885.761 958.678 903.845C997.912 914.608 1034.92 937.414 1073.07 957.24C1214.46 1030.92 1230.99 1189.99 1351.17 1215.3C1478.58 1241.96 1552.83 1185 1582.23 1140.19C1618.63 1084.69 1667.12 945.071 1552.33 840.401C1503.3 795.693 1454.46 745.991 1415.18 688.925C1359.35 607.899 1356.64 489.026 1422.06 419.099C1468.37 369.607 1542.07 345.333 1578.39 284.658C1604.15 241.586 1606.42 189.115 1593.2 143.924C1579.58 97.2428 1551.24 56.3525 1515.8 21.6514" stroke="#DD4D44" stroke-opacity="0.9" stroke-miterlimit="10"/>
</g>
<g style="mix-blend-mode:multiply">
<path d="M14.5605 1246.05C16.6586 1166.54 85.5387 1093.88 165.056 1076.53C237.566 1060.71 313.496 1082.58 383.949 1103.56C451.088 1123.42 522.423 1138.03 580.393 1111.72C654.33 1077.79 686.074 988.815 763.283 942.009C828.324 902.524 902.428 896.587 969.651 911.21C1010.42 920.084 1049.76 941.379 1089.54 961.562C1227.38 1031.3 1246.26 1184.08 1363.63 1209C1487.12 1235.02 1560.85 1181.73 1591.38 1137.67C1628.66 1083.75 1674.71 949.54 1567.42 846.423C1520.63 801.463 1473.93 750.858 1435.24 694.275C1381.27 615.264 1377.54 501.027 1438.55 431.876C1482.32 382.237 1553.02 355.97 1589.19 296.135C1615.36 252.874 1619.53 201.095 1608.94 155.673C1597.86 108.153 1572.22 65.4581 1538.42 28.5959" stroke="#DD4D44" stroke-opacity="0.8" stroke-miterlimit="10"/>
</g>
<g style="mix-blend-mode:multiply">
<path d="M17.75 1249.62C22.5966 1168.05 91.0781 1092.27 172.715 1073.39C245.602 1056.46 322.686 1077.96 393.139 1100.43C459.481 1121.54 528.718 1138.76 586.625 1116.14C660.31 1087.25 695.725 1003.73 772.788 957.681C839.129 918.028 912.185 907.538 980.645 918.783C1022.94 925.728 1064.57 945.575 1105.98 965.947C1240.26 1031.91 1261.54 1178.22 1376.11 1202.79C1495.7 1228.18 1568.97 1178.5 1600.61 1135.19C1638.75 1082.85 1682.43 953.904 1582.61 852.486C1538.04 807.232 1493.46 755.852 1455.42 699.646C1403.33 622.67 1398.54 513.027 1455.17 444.674C1496.42 394.888 1564.08 366.649 1600.15 307.653C1626.69 264.203 1632.81 213.074 1624.8 167.463C1616.28 119.041 1593.33 74.4165 1561.16 35.5613" stroke="#DD4D44" stroke-opacity="0.75" stroke-miterlimit="10"/>
</g>
<g style="mix-blend-mode:multiply">
<path d="M20.9814 1253.19C28.5555 1169.56 96.6594 1090.86 180.436 1070.24C253.701 1052.22 331.96 1073.32 402.413 1097.39C467.832 1119.75 535.306 1139.49 592.919 1120.57C666.352 1096.46 705.377 1018.52 782.356 973.164C849.935 933.302 922.025 918.238 991.681 926.147C1035.55 931.141 1079.44 949.624 1122.52 970.206C1253 1032.52 1276.85 1172.27 1388.64 1196.46C1504.29 1221.21 1577.09 1175.16 1609.76 1132.63C1648.72 1081.86 1690.05 958.037 1597.67 858.486C1553 810.556 1512.13 759.216 1475.44 704.933C1425.08 629.971 1419.33 524.839 1471.6 457.367C1510.33 407.371 1574.97 377.202 1610.91 319.024C1637.85 275.406 1645.95 224.928 1640.45 179.128C1634.56 129.804 1614.37 83.354 1583.8 42.4008" stroke="#DD4D44" stroke-opacity="0.7" stroke-miterlimit="10"/>
</g>
<g style="mix-blend-mode:multiply">
<path d="M24.1279 1256.71C34.4295 1171.03 102.156 1089.33 188.03 1067.05C261.673 1047.96 341.086 1068.62 411.56 1094.32C476.181 1117.88 541.642 1140.19 599.108 1125C672.184 1105.7 714.901 1033.36 791.796 988.626C860.613 948.659 931.759 928.854 1002.61 933.491C1048.06 936.491 1094.19 953.652 1138.99 974.423C1265.67 1033.17 1292.15 1166.24 1401.1 1190.08C1512.82 1214.2 1585.12 1171.76 1618.9 1130.01C1658.77 1080.79 1697.77 961.961 1612.76 864.403C1570.42 815.568 1531.28 764.052 1495.58 710.178C1447.18 637.272 1440.25 536.588 1488.17 470.06C1524.36 419.834 1586.01 387.797 1621.8 330.437C1647.51 288.648 1659.54 239.873 1656.21 190.919C1652.93 140.567 1635.46 92.3126 1606.36 49.3452" stroke="#DD4D44" stroke-opacity="0.65" stroke-miterlimit="10"/>
</g>
<g style="mix-blend-mode:multiply">
<path d="M27.2754 1260.3C40.3045 1172.58 107.674 1087.93 195.647 1063.94C269.688 1043.78 350.255 1063.94 420.729 1091.35C484.532 1116.1 548.041 1140.94 605.361 1129.53C678.143 1115.01 724.511 1048.27 801.322 1004.26C871.377 964.142 941.579 939.575 1013.61 941.022C1060.62 941.966 1108.99 957.806 1155.42 978.787C1278.24 1034.17 1307.34 1160.37 1413.48 1183.85C1521.26 1207.32 1593.03 1168.51 1627.95 1127.51C1668.52 1079.87 1705.47 965.968 1627.76 870.487C1587.78 820.756 1550.33 769.044 1515.55 715.549C1469.02 644.699 1461 548.379 1504.58 482.879C1538.15 432.359 1596.89 398.476 1632.56 341.955C1658.78 300.264 1672.46 251.914 1671.96 202.668C1671.13 150.883 1656.28 100.292 1629 56.2687" stroke="#DD4D44" stroke-opacity="0.6" stroke-miterlimit="10"/>
</g>
<g style="mix-blend-mode:multiply">
<path d="M30.5068 1263.86C46.2844 1174.09 113.276 1086.48 203.347 1060.82C277.766 1039.61 359.508 1059.29 429.94 1088.3C492.883 1114.26 554.462 1141.68 611.55 1134C683.997 1124.26 734.058 1063.17 810.764 1019.82C882.098 979.542 951.335 950.149 1024.54 948.491C1073.13 947.379 1123.69 962.086 1171.8 983.171C1290.72 1035.27 1322.55 1154.54 1425.94 1177.66C1529.8 1200.5 1601.05 1165.28 1637.09 1125.08C1678.47 1078.92 1713.38 969.66 1642.84 876.592C1607.18 829.555 1571.15 775.678 1535.63 720.983C1490.92 652.168 1481.71 560.17 1521.11 495.719C1552.16 444.884 1607.87 409.218 1643.37 353.515C1670.13 311.859 1685.42 263.877 1687.7 214.417C1689.78 161.662 1677.3 109.352 1651.63 63.2131" stroke="#DD4D44" stroke-opacity="0.55" stroke-miterlimit="10"/>
</g>
<g style="mix-blend-mode:multiply">
<path d="M33.6953 1267.43C52.2004 1175.62 118.836 1085.05 211.004 1057.63C285.822 1035.39 368.718 1054.52 439.192 1085.24C501.379 1112.35 560.881 1142.35 617.823 1138.45C689.976 1133.49 743.708 1078.02 820.309 1035.33C892.861 994.92 961.175 960.639 1035.55 955.855C1085.74 952.624 1138.48 966.199 1188.31 987.326C1303.27 1036.23 1337.84 1148.45 1438.45 1171.2C1538.38 1193.41 1609.06 1161.8 1646.3 1122.4C1688.41 1077.81 1721.46 973.038 1657.99 882.446C1624.63 834.821 1590.64 780.461 1555.75 726.144C1512.87 659.406 1502.48 571.625 1537.67 508.328C1566.12 457.115 1618.9 419.687 1654.26 364.824C1682.81 320.472 1699.18 272.511 1703.46 226.04C1708.4 172.37 1698.29 118.385 1674.27 70.1365" stroke="#DD4D44" stroke-opacity="0.5" stroke-miterlimit="10"/>
</g>
<g style="mix-blend-mode:multiply">
<path d="M36.8848 1270.98C58.1174 1177.13 124.396 1083.65 218.663 1054.52C293.879 1031.28 377.949 1049.85 448.403 1082.26C509.793 1110.5 567.344 1143.1 624.076 1142.96C695.893 1142.79 753.297 1092.96 829.814 1050.92C903.604 1010.38 970.973 971.192 1046.55 963.324C1098.28 957.953 1153.21 970.478 1204.78 991.752C1315.73 1037.55 1353.12 1142.66 1450.93 1165.05C1546.92 1186.64 1617.06 1158.59 1655.45 1120C1698.32 1076.93 1729.62 976.542 1673.08 888.614C1642.02 840.36 1610.13 785.58 1575.83 731.62C1534.77 666.917 1523.21 583.248 1554.18 521.21C1579.98 469.578 1629.9 430.471 1665.08 376.447C1694.06 331.948 1712.56 284.47 1719.21 237.978C1727.09 183.329 1719.36 127.566 1696.91 77.1229" stroke="#DD4D44" stroke-opacity="0.45" stroke-miterlimit="10"/>
</g>
<g style="mix-blend-mode:multiply">
<path d="M40.0732 1274.54C64.0544 1178.64 129.955 1082.26 226.32 1051.38C301.851 1027.15 387.18 1045.08 457.613 1079.22C518.227 1108.59 573.742 1143.82 630.307 1147.45C701.809 1152.02 762.905 1107.88 839.318 1066.46C914.366 1025.8 980.75 981.619 1057.52 970.772C1110.83 963.219 1167.94 974.758 1221.17 996.074C1328.17 1038.85 1368.27 1136.94 1463.33 1158.78C1555.35 1179.9 1624.88 1155.25 1664.54 1117.49C1708.11 1075.9 1737.97 979.752 1688.12 894.635C1659.42 845.584 1629.37 790.553 1595.8 736.949C1556.57 674.344 1543.58 594.829 1570.63 533.987C1593.71 481.872 1640.85 441.129 1675.87 387.881C1705.24 343.214 1725.93 296.345 1734.89 249.685C1745.71 194.101 1740.37 136.578 1719.49 83.9415" stroke="#DD4D44" stroke-opacity="0.4" stroke-miterlimit="10"/>
</g>
<g style="mix-blend-mode:multiply">
<path d="M43.2617 1278.11C69.9703 1180.15 135.577 1080.9 233.978 1048.23C310.012 1023.05 396.432 1040.32 466.865 1076.2C526.702 1106.68 580.162 1144.53 636.6 1151.91C707.788 1161.25 772.556 1122.79 848.863 1082.01C925.171 1041.22 990.547 992.025 1068.55 978.199C1123.42 968.464 1182.69 979.059 1237.74 1000.4C1340.55 1040.26 1383.64 1131.02 1475.9 1152.5C1564.02 1173 1633 1151.89 1673.79 1114.95C1718.1 1074.85 1746.51 982.773 1703.31 900.657C1677.08 850.787 1648.95 795.525 1616.03 742.277C1578.56 681.855 1564.16 606.326 1587.2 546.742C1607.55 494.145 1651.91 451.786 1686.78 399.357C1716.57 354.501 1739.44 308.261 1750.7 261.433C1764.46 204.967 1761.5 145.721 1742.19 90.9069" stroke="#DD4D44" stroke-opacity="0.35" stroke-miterlimit="10"/>
</g>
<g style="mix-blend-mode:multiply">
<path d="M46.4512 1281.68C75.8244 1181.66 141.117 1079.53 241.573 1045.08C318.006 1018.88 405.601 1035.54 475.95 1073.18C535.011 1104.75 586.498 1145.22 642.706 1156.4C713.579 1170.48 782.061 1137.71 858.242 1097.66C935.871 1056.77 1000.18 1002.49 1079.4 985.71C1135.8 973.772 1197.23 983.507 1254.09 1004.78C1352.84 1041.75 1398.86 1125.19 1488.26 1146.29C1572.41 1166.16 1640.81 1148.6 1682.83 1112.51C1727.81 1073.89 1755.11 985.815 1718.29 906.783C1694.62 855.99 1668.23 800.602 1635.98 747.711C1600.31 689.261 1584.47 617.802 1603.63 559.603C1621.13 506.461 1662.84 462.549 1697.52 410.917C1727.75 365.894 1752.84 320.283 1766.38 273.266C1783.07 215.932 1782.5 154.948 1764.74 97.9352" stroke="#DD4D44" stroke-opacity="0.3" stroke-miterlimit="10"/>
</g>
<g style="mix-blend-mode:multiply">
<path d="M49.6396 1285.22C81.8243 1183.28 146.718 1078.19 249.314 1041.94C326.167 1014.77 414.937 1030.73 485.244 1070.13C543.55 1102.82 593.002 1145.91 649.042 1160.87C719.6 1179.76 791.711 1152.65 867.83 1113.12C946.676 1072.15 1009.98 1012.77 1090.48 993.074C1148.39 978.891 1211.98 987.85 1270.62 1009.02C1365.26 1043.17 1414.13 1119.19 1500.8 1139.94C1581.05 1159.15 1648.82 1145.12 1692.06 1109.91C1737.74 1072.71 1764.15 988.563 1733.46 912.699C1712.48 860.962 1687.72 805.491 1656.14 752.935C1622.28 696.583 1604.85 629.153 1620.22 572.254C1634.76 518.545 1673.94 473.102 1708.34 422.288C1739 377.097 1766.31 332.074 1782.09 284.91C1801.81 226.75 1803.72 164.026 1787.57 104.775" stroke="#DD4D44" stroke-opacity="0.25" stroke-miterlimit="10"/>
</g>
<g style="mix-blend-mode:multiply">
<path d="M52.8301 1288.79C87.7422 1184.69 152.321 1076.89 256.974 1038.79C334.246 1010.68 424.233 1025.91 494.477 1067.11C552.006 1100.87 599.381 1146.61 655.274 1165.36C725.539 1188.94 801.469 1167.59 877.336 1128.73C957.461 1087.61 1019.67 1023.14 1101.49 1000.5C1160.91 984.074 1226.67 992.34 1287.13 1013.34C1377.67 1044.81 1429.45 1113.25 1513.31 1133.66C1589.64 1152.23 1656.77 1141.7 1701.25 1107.4C1747.62 1071.62 1773.41 991.333 1748.61 918.742C1730.56 865.976 1707.15 810.526 1676.27 758.306C1644.16 704.031 1625.05 640.503 1636.78 585.052C1648.26 530.756 1685.04 483.802 1719.32 433.764C1750.43 388.447 1779.97 344.137 1798 296.68C1820.6 237.654 1824.84 173.173 1810.14 111.698" stroke="#DD4D44" stroke-opacity="0.2" stroke-miterlimit="10"/>
</g>
<g style="mix-blend-mode:multiply">
<path d="M56.0186 1292.38C93.6582 1186.22 157.923 1075.59 264.631 1035.66C342.26 1006.61 433.527 1021.08 503.687 1064.11C560.482 1098.92 605.906 1147.22 661.526 1169.85C731.518 1198.05 811.014 1182.57 886.86 1144.24C968.245 1103.12 1029.36 1033.48 1112.45 1007.97C1173.29 989.256 1241.27 996.934 1303.56 1017.66C1389.94 1046.43 1444.7 1107.19 1525.73 1127.41C1598.17 1145.18 1664.64 1138.28 1710.36 1104.88C1757.42 1070.53 1782.83 994.102 1763.65 924.805C1748.15 868.448 1725.52 814.3 1696.3 763.677C1665.96 711.521 1645.09 651.958 1653.25 597.934C1661.54 543.092 1695.99 494.607 1730.12 445.366C1761.59 399.881 1793.44 356.264 1813.69 308.576C1839.26 248.725 1845.91 182.488 1832.76 118.748" stroke="#DD4D44" stroke-opacity="0.15" stroke-miterlimit="10"/>
</g>
<g style="mix-blend-mode:multiply">
<path d="M59.208 1295.9C99.5752 1187.73 163.651 1074.18 272.29 1032.5C350.443 1002.49 442.822 1016.22 512.898 1061.05C568.959 1096.93 612.326 1147.91 667.758 1174.34C737.456 1207.3 820.645 1197.42 896.449 1159.8C979.113 1118.6 1039.12 1043.8 1123.5 1015.4C1185.9 994.417 1255.93 1001.59 1320.09 1021.98C1402.36 1048.13 1460.06 1101.27 1538.3 1121.12C1606.8 1138.26 1672.57 1134.82 1719.61 1102.36C1767.32 1069.4 1792.62 996.893 1778.84 930.826C1766.57 873.978 1745.52 819.386 1716.46 769.006C1687.87 718.927 1665.12 663.392 1669.87 610.606C1674.82 555.219 1707.09 505.16 1741.03 456.738C1772.88 411.085 1806.98 368.139 1829.53 320.199C1858.03 259.539 1867.1 191.554 1855.48 125.545" stroke="#DD4D44" stroke-opacity="0.1" stroke-miterlimit="10"/>
</g>
<g style="mix-blend-mode:multiply">
<path d="M62.3965 1299.47C105.512 1189.24 169.168 1072.99 279.947 1029.35C358.541 998.403 452.158 1011.37 522.108 1058.03C577.455 1094.95 618.767 1148.62 674.009 1178.79C743.414 1216.55 830.359 1212.61 905.869 1175.33C989.897 1134.23 1048.64 1054.08 1134.41 1022.82C1198.26 999.536 1270.43 1006.35 1336.48 1026.29C1414.61 1049.85 1475.23 1095.33 1550.67 1114.82C1615.25 1131.33 1680.44 1131.33 1728.67 1099.82C1776.91 1068.31 1802.51 999.809 1793.84 936.826C1786.16 880.956 1765.18 825.632 1736.46 774.314C1709.6 726.374 1684.91 674.889 1686.29 623.257C1687.76 567.408 1718.12 515.797 1751.8 468.004C1784.32 422.267 1820.51 379.992 1845.2 331.759C1876.65 270.313 1888.13 200.584 1878.04 132.301" stroke="#DD4D44" stroke-opacity="0.05" stroke-miterlimit="10"/>
</g>
<g style="mix-blend-mode:multiply">
<path d="M65.5859 1303.03C111.429 1190.75 174.854 1071.88 287.605 1026.22C366.682 994.459 461.579 1006.48 531.319 1055.01C585.869 1092.96 625.187 1149.42 680.283 1183.28C749.394 1225.76 839.989 1227.51 915.415 1190.87C1000.7 1149.65 1058.32 1064.39 1145.43 1030.25C1210.72 1004.68 1285.03 1011.24 1352.99 1030.59C1426.99 1051.57 1490.54 1089.33 1563.18 1108.55C1623.83 1124.41 1688.37 1127.83 1737.86 1097.3C1786.92 1067.05 1812.77 1002.89 1808.99 942.869C1805.42 886.096 1784.55 830.604 1756.54 779.643C1731.36 733.822 1704.69 686.491 1702.81 636.118C1700.71 579.849 1729.12 526.539 1762.62 479.669C1795.56 433.764 1833.96 392.245 1860.94 343.697C1895.33 281.474 1909.24 209.992 1900.68 139.413" stroke="#DD4D44" stroke-opacity="0.025" stroke-miterlimit="10"/>
</g>
</g>
</svg>
